Coordinates
version=1
nRows=37
nColumns=34
inDegrees=no

Units are S.I. units (second, meters, Newtons, ...)
If the header above contains a line with 'inDegrees', this indicates whether rotational values are in degrees (yes) or radians (no).

endheader
time	pelvis_tilt	pelvis_list	pelvis_rotation	pelvis_tx	pelvis_ty	pelvis_tz	hip_flexion_r	hip_adduction_r	hip_rotation_r	knee_angle_r	ankle_angle_r	subtalar_angle_r	mtp_angle_r	hip_flexion_l	hip_adduction_l	hip_rotation_l	knee_angle_l	ankle_angle_l	subtalar_angle_l	mtp_angle_l	lumbar_extension	lumbar_bending	lumbar_rotation	arm_flex_r	arm_add_r	arm_rot_r	elbow_flex_r	pro_sup_r	arm_flex_l	arm_add_l	arm_rot_l	elbow_flex_l	pro_sup_l
0.48	0.166175	-0.073069	-0.0126841	0.448055	1.05915	-0.168694	-0.311352	0.148328	-0.24708	0.164886	0.38251	0.372589	-0.00721453	0.290133	-0.186505	-0.440201	0.141709	0.15599	0.433148	-0.013361	-0.455289	-0.357075	0.282058	0.116755	-0.365088	-0.150096	1.02107	1.96601	-0.14588	-0.164368	-0.301774	0.383348	1.86718
0.49	0.164368	-0.0739118	-0.0148179	0.460859	1.05683	-0.168026	-0.316929	0.145845	-0.257439	0.178748	0.395669	0.386269	-0.00724153	0.290764	-0.183637	-0.444631	0.117998	0.163748	0.440508	-0.0133204	-0.453404	-0.370068	0.28704	0.1168	-0.371983	-0.152645	1.03422	1.96766	-0.15817	-0.164246	-0.310536	0.384889	1.86574
0.5	0.162648	-0.0751223	-0.0168256	0.473821	1.05458	-0.167363	-0.322902	0.143764	-0.266174	0.192062	0.406397	0.397987	-0.00726853	0.292542	-0.182909	-0.447795	0.103676	0.170466	0.44043	-0.0132799	-0.451482	-0.382771	0.292197	0.115125	-0.377756	-0.15651	1.04714	1.96991	-0.169967	-0.164535	-0.319304	0.387488	1.86301
0.51	0.160954	-0.0765628	-0.0186463	0.486947	1.05243	-0.166701	-0.329274	0.142025	-0.273098	0.204639	0.414579	0.407523	-0.00729552	0.295566	-0.184335	-0.450363	0.098837	0.175272	0.434286	-0.0132393	-0.449528	-0.395308	0.297327	0.111729	-0.382267	-0.161585	1.05977	1.97269	-0.181122	-0.165299	-0.328065	0.390694	1.8593
0.52	0.159207	-0.0779873	-0.0201977	0.50024	1.05037	-0.166049	-0.33597	0.140449	-0.278154	0.2164	0.420215	0.414677	-0.00732252	0.299747	-0.18756	-0.452612	0.102776	0.177183	0.423462	-0.0131986	-0.447571	-0.407889	0.302129	0.106684	-0.385385	-0.167671	1.07198	1.97585	-0.191503	-0.166592	-0.33688	0.394168	1.85495
0.53	0.157329	-0.079072	-0.0213853	0.513706	1.04843	-0.165431	-0.342833	0.138758	-0.281427	0.227402	0.423408	0.419275	-0.00734951	0.30481	-0.191915	-0.454423	0.11408	0.17524	0.40915	-0.013158	-0.445668	-0.420777	0.306242	0.100136	-0.386997	-0.174487	1.08356	1.97918	-0.200991	-0.168449	-0.345843	0.397675	1.85028
0.54	0.155257	-0.0794454	-0.0221144	0.527345	1.04662	-0.164892	-0.349634	0.13663	-0.283128	0.237853	0.424328	0.421173	-0.0073765	0.310363	-0.196545	-0.455403	0.130856	0.16869	0.392277	-0.0131173	-0.443894	-0.434235	0.309286	0.0922842	-0.387018	-0.1817	1.09428	1.98242	-0.209477	-0.170892	-0.355047	0.401065	1.84558
0.55	0.152939	-0.0787829	-0.0222979	0.541154	1.04497	-0.164473	-0.356082	0.13375	-0.28356	0.24811	0.423172	0.420245	-0.00740349	0.315985	-0.200567	-0.455084	0.151061	0.157165	0.373556	-0.0130766	-0.442351	-0.44848	0.310912	0.0833593	-0.385402	-0.188954	1.10386	1.98532	-0.216858	-0.173923	-0.364542	0.404238	1.84105
0.56	0.150339	-0.0768478	-0.0218639	0.555117	1.0435	-0.164212	-0.361841	0.129869	-0.283077	0.258675	0.420098	0.416359	-0.00743047	0.321308	-0.203224	-0.453117	0.172823	0.140821	0.353576	-0.0130359	-0.441148	-0.463624	0.310837	0.0736083	-0.382143	-0.195905	1.11204	1.98768	-0.223029	-0.177529	-0.374318	0.407121	1.83683
0.57	0.147439	-0.073527	-0.0207595	0.569211	1.04222	-0.164144	-0.366533	0.124838	-0.282039	0.270168	0.415178	0.409363	-0.00745745	0.326089	-0.204007	-0.449382	0.194686	0.120382	0.332875	-0.0129952	-0.440405	-0.47965	0.308865	0.0632754	-0.377286	-0.202245	1.1186	1.98937	-0.22788	-0.181673	-0.3843	0.409643	1.83306
0.58	0.144241	-0.068839	-0.0189538	0.5834	1.04114	-0.164295	-0.369754	0.118613	-0.280786	0.283302	0.408335	0.399064	-0.00748443	0.330223	-0.202697	-0.444002	0.215743	0.0970811	0.311967	-0.0129545	-0.440243	-0.496396	0.304898	0.0525904	-0.370931	-0.207723	1.12337	1.99037	-0.231299	-0.186294	-0.394352	0.411737	1.82981
0.59	0.140763	-0.0629177	-0.01644	0.597639	1.04029	-0.164687	-0.371089	0.111236	-0.27962	0.29885	0.399315	0.385236	-0.0075114	0.333731	-0.199346	-0.437285	0.235621	0.07252	0.291321	-0.0129137	-0.440788	-0.51358	0.298924	0.0417603	-0.363229	-0.212149	1.12626	1.99079	-0.23317	-0.191307	-0.404298	0.413343	1.82716
0.6	0.137042	-0.0559797	-0.0132376	0.611875	1.03966	-0.165338	-0.370124	0.102787	-0.278808	0.317603	0.387664	0.367635	-0.00753837	0.336715	-0.194209	-0.429631	0.254383	0.0484655	0.271337	-0.012873	-0.442166	-0.530831	0.291002	0.0309663	-0.354385	-0.21539	1.12727	1.99079	-0.233392	-0.196595	-0.413938	0.414426	1.82518
0.61	0.133125	-0.0482821	-0.00939454	0.626053	1.03927	-0.166261	-0.366466	0.0933351	-0.278595	0.340323	0.37274	0.346027	-0.00756533	0.339296	-0.187648	-0.421447	0.272349	0.0266322	0.252334	-0.0128322	-0.444493	-0.547737	0.281244	0.0203622	-0.344643	-0.217364	1.12649	1.99063	-0.231881	-0.202018	-0.423066	0.415001	1.82394
0.62	0.129072	-0.0400806	-0.00498855	0.640115	1.03912	-0.16747	-0.359767	0.0828993	-0.279205	0.367676	0.353755	0.320224	-0.00759229	0.34157	-0.180041	-0.4131	0.289915	0.00848622	0.234564	-0.0127914	-0.447857	-0.563894	0.269801	0.0100743	-0.334277	-0.218026	1.12405	1.99055	-0.228593	-0.207418	-0.431481	0.415141	1.82347
0.63	0.124947	-0.0315976	-0.000125318	0.654006	1.0392	-0.168972	-0.349749	0.0714235	-0.280847	0.400168	0.329849	0.290114	-0.00761925	0.343566	-0.171716	-0.404899	0.307398	-0.00490306	0.218247	-0.0127505	-0.452297	-0.57894	0.256855	0.000201494	-0.323573	-0.217361	1.12013	1.99084	-0.223531	-0.212628	-0.439001	0.414993	1.82376
0.64	0.120815	-0.0230064	0.00506488	0.667676	1.03951	-0.17077	-0.336243	0.0587834	-0.2837	0.438063	0.300209	0.255682	-0.00764621	0.345232	-0.162912	-0.397112	0.324923	-0.0129448	0.203609	-0.0127097	-0.457787	-0.592576	0.242612	-0.00918494	-0.312806	-0.21538	1.11494	1.9917	-0.216754	-0.217487	-0.445467	0.414774	1.82479
0.65	0.116733	-0.0144324	0.010432	0.681085	1.04003	-0.172862	-0.319212	0.0448184	-0.287878	0.481326	0.264221	0.217026	-0.00767317	0.34643	-0.153783	-0.389985	0.34239	-0.0155396	0.190892	-0.0126688	-0.464228	-0.604582	0.227313	-0.018042	-0.302223	-0.212125	1.10865	1.99334	-0.208379	-0.221849	-0.450752	0.414758	1.82647
0.66	0.112754	-0.00596201	0.0158138	0.69421	1.04074	-0.175241	-0.298784	0.0293825	-0.293395	0.529581	0.221645	0.174361	-0.00770013	0.346956	-0.144416	-0.383761	0.359494	-0.0130306	0.180352	-0.012628	-0.471445	-0.614805	0.211231	-0.0263545	-0.292028	-0.207672	1.10144	1.99588	-0.198572	-0.225594	-0.454772	0.415257	1.82869
0.67	0.108925	0.00234294	0.0210435	0.70704	1.04162	-0.177893	-0.27525	0.012403	-0.300128	0.582108	0.172793	0.128029	-0.00772708	0.346559	-0.134871	-0.378675	0.375783	-0.0061082	0.172221	-0.0125871	-0.479207	-0.623158	0.194681	-0.0341331	-0.282368	-0.202144	1.09343	1.99938	-0.187534	-0.228636	-0.457491	0.416598	1.83132
0.68	0.105304	0.0104244	0.0259565	0.719577	1.04265	-0.180795	-0.249048	-0.00607036	-0.307786	0.637886	0.118681	0.0785249	-0.00775403	0.344975	-0.12521	-0.374932	0.390744	0.00431209	0.166656	-0.0125462	-0.487248	-0.6296	0.178013	-0.0414101	-0.273327	-0.195713	1.08473	2.00387	-0.175479	-0.230923	-0.458932	0.419094	1.83423
0.69	0.101961	0.018213	0.0303954	0.73183	1.04383	-0.183913	-0.220725	-0.0258331	-0.31591	0.695675	0.0610929	0.0265333	-0.00778099	0.341954	-0.115519	-0.37268	0.40389	0.0172185	0.163702	-0.0125053	-0.495296	-0.634137	0.161602	-0.0482325	-0.264928	-0.188597	1.07539	2.00932	-0.162621	-0.232439	-0.459182	0.423027	1.83728
0.7	0.0989862	0.0256219	0.0342146	0.743815	1.04514	-0.187208	-0.190871	-0.0465184	-0.32389	0.754122	0.00253767	-0.0270285	-0.00780794	0.337281	-0.105914	-0.371982	0.414821	0.0316184	0.163261	-0.0124643	-0.503108	-0.636808	0.145825	-0.0546526	-0.257138	-0.181059	1.06546	2.01565	-0.149148	-0.233198	-0.458388	0.428628	1.84037
0.71	0.0964788	0.032548	0.0372843	0.755553	1.04658	-0.190633	-0.160061	-0.067614	-0.331008	0.81188	-0.0539434	-0.0809777	-0.00783489	0.330797	-0.0965361	-0.372802	0.423264	0.0466264	0.165096	-0.0124234	-0.510485	-0.637682	0.131038	-0.0607172	-0.249875	-0.173382	1.05495	2.0228	-0.135219	-0.233241	-0.456749	0.436066	1.84337
0.72	0.0945339	0.0388779	0.0394955	0.767063	1.04816	-0.194139	-0.128786	-0.0885006	-0.336504	0.8677	-0.105107	-0.133864	-0.00786183	0.32241	-0.0875381	-0.375002	0.429078	0.0615196	0.16885	-0.0123824	-0.517285	-0.636853	0.117548	-0.0664588	-0.24303	-0.165852	1.04386	2.0307	-0.120962	-0.23263	-0.454498	0.445446	1.84621
0.73	0.0932266	0.0444977	0.0407647	0.778363	1.04987	-0.197678	-0.0974159	-0.108506	-0.339643	0.920509	-0.147929	-0.184017	-0.00788878	0.3121	-0.0790654	-0.378365	0.43224	0.0757595	0.174091	-0.0123415	-0.523416	-0.634426	0.105586	-0.0718881	-0.236478	-0.158723	1.03219	2.03932	-0.106479	-0.231439	-0.451888	0.456813	1.8488
0.74	0.0925966	0.049303	0.0410395	0.789471	1.05174	-0.201207	-0.0661828	-0.126963	-0.339797	0.969437	-0.180046	-0.229645	-0.00791572	0.299919	-0.0712391	-0.382617	0.432814	0.0889884	0.180359	-0.0123005	-0.528827	-0.630517	0.0952906	-0.0769922	-0.230097	-0.152191	1.0199	2.04863	-0.0918628	-0.229753	-0.449159	0.470151	1.85109
0.75	0.0926394	0.0532081	0.0403037	0.800401	1.05376	-0.20469	-0.0351969	-0.143269	-0.336512	1.01382	-0.200108	-0.26899	-0.00794266	0.285977	-0.0641428	-0.387467	0.430913	0.101006	0.187211	-0.0122595	-0.533489	-0.625234	0.0866948	-0.0817382	-0.223783	-0.146377	1.00694	2.05866	-0.0772076	-0.227657	-0.44653	0.485402	1.85304
0.76	0.0933019	0.0561494	0.0385805	0.811163	1.05593	-0.208098	-0.00449058	-0.156937	-0.329563	1.05317	-0.207968	-0.300512	-0.00796959	0.27043	-0.0578131	-0.392633	0.426668	0.111739	0.194263	-0.0122185	-0.537389	-0.618675	0.0797286	-0.0860803	-0.21746	-0.141314	0.993271	2.06943	-0.062622	-0.225241	-0.444171	0.502466	1.85468
0.77	0.0944974	0.0580932	0.0359374	0.821774	1.05824	-0.211418	0.0259285	-0.16763	-0.318996	1.08716	-0.204664	-0.323083	-0.00799652	0.253457	-0.0522399	-0.397863	0.420214	0.121203	0.201209	-0.0121775	-0.540525	-0.610916	0.0742263	-0.0899713	-0.211088	-0.136954	0.978832	2.08093	-0.0482306	-0.222592	-0.442201	0.52122	1.85603
0.78	0.0961203	0.0590327	0.0324859	0.832253	1.06069	-0.214647	0.0560234	-0.175183	-0.305129	1.11556	-0.192186	-0.336148	-0.00802345	0.235245	-0.0473704	-0.402948	0.411676	0.129469	0.207835	-0.0121365	-0.542909	-0.602011	0.0699441	-0.093374	-0.204663	-0.133191	0.963598	2.09308	-0.0341688	-0.219795	-0.44068	0.541518	1.8572
0.79	0.098061	0.058988	0.0283768	0.842622	1.06327	-0.217792	0.0856917	-0.179607	-0.288533	1.13825	-0.173108	-0.339832	-0.00805037	0.215973	-0.0431196	-0.407735	0.401179	0.136634	0.214022	-0.0120955	-0.544574	-0.591995	0.0665829	-0.0962711	-0.19821	-0.129886	0.947576	2.10574	-0.0205713	-0.216939	-0.439615	0.563203	1.8583
0.8	0.100218	0.0580062	0.0237902	0.852901	1.06593	-0.220867	0.114753	-0.181075	-0.269972	1.15517	-0.150162	-0.334961	-0.00807728	0.195808	-0.0393838	-0.412128	0.388859	0.142798	0.21974	-0.0120545	-0.545577	-0.580887	0.0638155	-0.0986716	-0.191776	-0.126908	0.930823	2.11865	-0.00755607	-0.214114	-0.438974	0.586107	1.85945
0.81	0.102505	0.0561599	0.0189226	0.863112	1.06866	-0.22389	0.142957	-0.179893	-0.25033	1.16632	-0.125847	-0.322987	-0.0081042	0.174901	-0.0360549	-0.416089	0.374874	0.148054	0.225035	-0.0120135	-0.545999	-0.568711	0.0613139	-0.100613	-0.18542	-0.124162	0.913455	2.13148	0.00479111	-0.21141	-0.4387	0.610057	1.8608
0.82	0.104855	0.053544	0.0139721	0.873279	1.07141	-0.22688	0.170014	-0.176465	-0.230526	1.17178	-0.102145	-0.305838	-0.00813111	0.153394	-0.0330314	-0.419632	0.359416	0.15248	0.23002	-0.0119725	-0.545943	-0.555494	0.0587737	-0.10216	-0.179197	-0.12161	0.89564	2.14381	0.0164292	-0.208923	-0.438727	0.634874	1.86242
0.83	0.107224	0.0502708	0.00912489	0.883421	1.07414	-0.229854	0.195622	-0.171248	-0.211423	1.17167	-0.0803836	-0.2857	-0.00815802	0.131417	-0.0302263	-0.42281	0.342709	0.156144	0.23485	-0.0119315	-0.545528	-0.541288	0.0559344	-0.103395	-0.173155	-0.119287	0.877591	2.15524	0.0273688	-0.206746	-0.438994	0.660368	1.86438
0.84	0.109587	0.0464643	0.00454382	0.893556	1.07682	-0.232827	0.219498	-0.16471	-0.193766	1.16616	-0.061234	-0.264767	-0.00818493	0.109093	-0.0275699	-0.425694	0.325007	0.159109	0.2397	-0.0118905	-0.544881	-0.526166	0.0525929	-0.104414	-0.167327	-0.11729	0.859548	2.16536	0.037673	-0.204972	-0.43945	0.686335	1.86666
